<svg width="24" height="24" viewBox="0 0 24 24" fill="none" xmlns="http://www.w3.org/2000/svg">
<g clip-path="url(#clip0_589_94)">
<path fill-rule="evenodd" clip-rule="evenodd" d="M19.0245 6.28407C19.0245 7.0463 18.4066 7.66407 17.6445 7.66407C16.8825 7.66407 16.2645 7.0463 16.2645 6.28407C16.2645 5.52183 16.8825 4.90407 17.6445 4.90407C18.4068 4.90407 19.0245 5.52183 19.0245 6.28407ZM11.5059 16.256C9.38878 16.256 7.67259 14.5398 7.67259 12.4227C7.67259 10.3057 9.38878 8.58946 11.5059 8.58946C13.6229 8.58946 15.3391 10.3057 15.3391 12.4227C15.3391 14.5398 13.6229 16.256 11.5059 16.256ZM11.5059 6.5173C8.24435 6.5173 5.60043 9.16122 5.60043 12.4227C5.60043 15.6842 8.24435 18.3282 11.5059 18.3282C14.7674 18.3282 17.4113 15.6842 17.4113 12.4227C17.4113 9.16122 14.7674 6.5173 11.5059 6.5173ZM11.5059 2.99489C14.5765 2.99489 14.9402 3.00657 16.1528 3.06191C17.274 3.11312 17.883 3.30035 18.2882 3.45794C18.8249 3.66656 19.208 3.91578 19.6105 4.31828C20.013 4.7206 20.2622 5.1037 20.4708 5.6406C20.6282 6.0458 20.8156 6.65476 20.8669 7.77601C20.9222 8.98872 20.9339 9.35241 20.9339 12.4231C20.9339 15.4938 20.9222 15.8575 20.8669 17.07C20.8156 18.1912 20.6284 18.8002 20.4708 19.2054C20.2622 19.7421 20.013 20.1252 19.6105 20.5277C19.2082 20.9302 18.8251 21.1794 18.2882 21.3881C17.883 21.5455 17.274 21.7329 16.1528 21.7841C14.9402 21.8394 14.5765 21.8511 11.5059 21.8511C8.435 21.8511 8.07131 21.8394 6.85878 21.7841C5.73753 21.7329 5.12857 21.5456 4.72337 21.3881C4.18665 21.1794 3.80355 20.9302 3.40105 20.5277C2.99873 20.1254 2.74933 19.7423 2.54071 19.2054C2.3833 18.8002 2.19589 18.1912 2.14468 17.07C2.08934 15.8573 2.07766 15.4936 2.07766 12.4231C2.07766 9.35241 2.08934 8.98872 2.14468 7.77601C2.19589 6.65476 2.38313 6.0458 2.54071 5.6406C2.74933 5.10388 2.99855 4.72078 3.40105 4.31828C3.80338 3.91578 4.18647 3.66656 4.72337 3.45794C5.12857 3.30053 5.73753 3.11312 6.85878 3.06191C8.07149 3.00657 8.43518 2.99489 11.5059 2.99489ZM11.5059 0.922729C8.38271 0.922729 7.99099 0.936026 6.76445 0.991909C5.54041 1.04779 4.70433 1.24221 3.973 1.52648C3.2167 1.82027 2.57539 2.2136 1.93606 2.85293C1.29673 3.49226 0.903398 4.13357 0.609609 4.88987C0.325344 5.62138 0.130922 6.45728 0.0750391 7.68132C0.0191563 8.90786 0.00585938 9.29958 0.00585938 12.4227C0.00585938 15.5459 0.0191563 15.9376 0.0750391 17.1641C0.130922 18.3882 0.325344 19.2241 0.609609 19.9556C0.903398 20.7119 1.29673 21.3532 1.93606 21.9925C2.57539 22.6319 3.2167 23.025 3.973 23.319C4.70451 23.6032 5.54041 23.7977 6.76445 23.8535C7.99099 23.9094 8.38271 23.9227 11.5059 23.9227C14.629 23.9227 15.0207 23.9094 16.2473 23.8535C17.4713 23.7977 18.3072 23.6032 19.0387 23.319C19.795 23.025 20.4363 22.6319 21.0757 21.9925C21.715 21.3532 22.1081 20.7119 22.4021 19.9556C22.6864 19.2241 22.8808 18.3882 22.9367 17.1641C22.9926 15.9376 23.0059 15.5459 23.0059 12.4227C23.0059 9.29958 22.9926 8.90786 22.9367 7.68132C22.8808 6.45728 22.6864 5.62138 22.4021 4.88987C22.1081 4.13357 21.715 3.49226 21.0757 2.85293C20.4363 2.2136 19.795 1.82045 19.0387 1.52648C18.3072 1.24221 17.4713 1.04779 16.2473 0.991909C15.0207 0.936026 14.629 0.922729 11.5059 0.922729Z" fill="url(#paint0_radial_589_94)"/>
</g>
<defs>
<radialGradient id="paint0_radial_589_94" cx="0" cy="0" r="1" gradientUnits="userSpaceOnUse" gradientTransform="translate(3.43989 24.0026) scale(29.3882)">
<stop stop-color="#FFB140"/>
<stop offset="0.2559" stop-color="#FF5445"/>
<stop offset="0.599" stop-color="#FC2B82"/>
<stop offset="1" stop-color="#8E40B7"/>
</radialGradient>
<clipPath id="clip0_589_94">
<rect width="23" height="23" fill="white" transform="translate(0.00585938 0.922729)"/>
</clipPath>
</defs>
</svg>
