<svg width="23" height="26" viewBox="0 0 23 26" fill="none" xmlns="http://www.w3.org/2000/svg">
<g clip-path="url(#clip0_589_89)">
<path d="M11.6655 25.3345C17.7406 25.3345 22.6655 19.738 22.6655 12.8345C22.6655 5.93093 17.7406 0.334473 11.6655 0.334473C5.59041 0.334473 0.665527 5.93093 0.665527 12.8345C0.665527 19.738 5.59041 25.3345 11.6655 25.3345Z" fill="url(#paint0_linear_589_89)"/>
<path d="M5.5707 12.4223C6.85659 11.6174 8.292 10.9456 9.63318 10.2704C11.9405 9.16446 14.257 8.07769 16.5969 7.06592C17.0522 6.89352 17.8702 6.72493 17.9504 7.4916C17.9065 8.5768 17.7258 9.65566 17.6019 10.7345C17.2873 13.107 16.9237 15.4714 16.5692 17.8361C16.4471 18.6237 15.5788 19.0315 15.0232 18.5274C13.688 17.5025 12.3425 16.4876 11.0243 15.439C10.5925 14.9404 10.9929 14.2244 11.3786 13.8684C12.4783 12.6368 13.6446 11.5904 14.6868 10.2952C14.9679 9.52373 14.1373 10.1739 13.8633 10.3732C12.3577 11.5521 10.8891 12.8031 9.30176 13.8392C8.49096 14.3464 7.54597 13.913 6.73555 13.6299C6.0089 13.2881 4.94409 12.9436 5.57063 12.4223L5.5707 12.4223Z" fill="white"/>
</g>
<defs>
<linearGradient id="paint0_linear_589_89" x1="8.91681" y1="1.37697" x2="2.12174" y2="15.3287" gradientUnits="userSpaceOnUse">
<stop stop-color="#37AEE2"/>
<stop offset="1" stop-color="#1E96C8"/>
</linearGradient>
<clipPath id="clip0_589_89">
<rect width="22" height="25" fill="white" transform="translate(0.665527 0.334473)"/>
</clipPath>
</defs>
</svg>
