<svg width="30" height="19" viewBox="0 0 30 19" fill="none" xmlns="http://www.w3.org/2000/svg">
<path d="M1.39927 1.90561H6.0926C6.19072 1.90545 6.28656 1.93566 6.36735 1.99221C6.44814 2.04876 6.51005 2.12898 6.54483 2.22217C7.06427 3.58148 9.22149 8.90079 11.1954 9.33527C12.662 9.33527 12.1426 2.25941 10.2787 2.25941C9.78983 2.25941 11.1465 1.37803 11.2382 1.34079C12.9703 0.858573 14.7983 0.858573 16.5304 1.34079C17.4654 1.73803 17.6243 2.84906 17.6487 3.79251C17.6732 4.73596 16.6098 8.75803 18.0093 9.19251C19.8426 9.76355 22.2015 3.92285 22.7515 2.48906C22.7873 2.39703 22.8496 2.31815 22.9303 2.26276C23.011 2.20737 23.1063 2.17807 23.2037 2.17872H28.4287C28.5095 2.17846 28.589 2.19852 28.6603 2.2371C28.7315 2.27569 28.7922 2.33159 28.837 2.39983C28.8818 2.46807 28.9093 2.54651 28.9169 2.62814C28.9246 2.70978 28.9122 2.79208 28.8809 2.86768C27.8047 5.36145 26.5143 7.75414 25.0248 10.018C24.8982 10.2048 24.8388 10.4303 24.8566 10.6564C24.8744 10.8825 24.9683 11.0954 25.1226 11.2594C26.6871 12.9601 30.9648 17.7767 28.5204 17.7767H23.2465C23.1102 17.777 22.9754 17.7478 22.851 17.6911C22.7267 17.6344 22.6157 17.5514 22.5254 17.4477C21.7065 16.5291 19.3232 13.9718 18.2476 14.1766C17.3554 14.3442 17.2698 15.8835 17.3126 16.8891C17.3261 17.1485 17.2389 17.403 17.0699 17.5979C16.9008 17.7928 16.6632 17.9127 16.4082 17.9318C15.4732 17.9877 14.1959 18.0125 14.0798 18.0063C10.352 17.7642 8.14594 15.238 6.0376 12.4201C3.82914 9.43257 2.10636 6.10485 0.934825 2.56354C0.910879 2.48861 0.904605 2.40901 0.91651 2.33117C0.928414 2.25332 0.958164 2.1794 1.00336 2.11538C1.04856 2.05135 1.10793 1.99901 1.1767 1.96258C1.24547 1.92614 1.32171 1.90663 1.39927 1.90561V1.90561Z" fill="#4489C8"/>
</svg>
