<svg width="26" height="26" viewBox="0 0 26 26" fill="none" xmlns="http://www.w3.org/2000/svg">
<g clip-path="url(#clip0_589_101)">
<path d="M25.301 7.40554C25.1572 6.87531 24.8771 6.39193 24.4886 6.00345C24.1001 5.61497 23.6168 5.33491 23.0865 5.19109C21.1451 4.66101 13.3311 4.66101 13.3311 4.66101C13.3311 4.66101 5.5166 4.67664 3.57481 5.20671C3.04457 5.35053 2.5612 5.6306 2.17272 6.01908C1.78424 6.40756 1.50417 6.89093 1.36035 7.42117C0.84668 9.36296 0.84668 13.4227 0.84668 13.4227C0.84668 13.4227 0.84668 17.4825 1.37637 19.4399C1.52019 19.9702 1.80025 20.4535 2.18873 20.842C2.57721 21.2305 3.06058 21.5106 3.59082 21.6544C5.53223 22.1845 13.3467 22.1844 13.3467 22.1844C13.3467 22.1844 21.1611 22.1845 23.1029 21.6548C23.6332 21.5109 24.1165 21.2309 24.505 20.8424C24.8935 20.4539 25.1736 19.9705 25.3174 19.4403C25.8467 17.4985 25.8467 13.4227 25.8467 13.4227C25.8467 13.4227 25.8311 9.36296 25.301 7.40554Z" fill="#FF0000"/>
<path d="M10.8437 17.1775L17.3261 13.4228L10.8433 9.66809L10.8437 17.1775Z" fill="white"/>
</g>
<defs>
<clipPath id="clip0_589_101">
<rect width="25" height="25" fill="white" transform="translate(0.84668 0.922729)"/>
</clipPath>
</defs>
</svg>
