<svg width="54" height="30" viewBox="0 0 54 30" fill="none" xmlns="http://www.w3.org/2000/svg">
<path d="M0.701172 22.9011V23.4244C0.701172 24.0429 1.03216 24.5449 1.43994 24.5449H4.96259C5.5226 27.6036 7.37186 29.8478 9.56686 29.8478C11.7619 29.8478 13.6111 27.6036 14.1711 24.5449H40.1298C40.6898 27.6036 42.5391 29.8478 44.7341 29.8478C46.9291 29.8478 48.7783 27.6036 49.3383 24.5449H52.5654C52.9732 24.5449 53.3042 24.0429 53.3042 23.4244V22.9011C53.3042 22.2827 52.9732 21.7807 52.5654 21.7807H52.5588V15.1915C52.5588 14.8801 52.5299 14.572 52.4738 14.2761L52.0091 11.8447C51.8185 10.8498 51.3338 10.0992 50.7339 9.86947L48.1554 8.88357C47.4026 8.59552 46.6882 8.0712 46.0483 7.33736L42.0854 2.79515C41.2165 1.7991 40.2132 1.19406 39.1693 1.03389C36.7394 0.664091 34.3028 0.479248 31.8662 0.479248C28.99 0.479248 26.1139 0.736966 23.2502 1.25241L21.305 1.60203C20.4428 1.75781 19.6072 2.20372 18.8469 2.91404L13.9369 7.50895C13.1951 8.20243 12.3809 8.64499 11.5401 8.80976L5.29723 10.0344C3.65934 10.356 2.34499 12.4802 2.07385 15.2443L2.07012 15.2824L1.59208 16.2371C1.32094 16.7782 1.17244 17.465 1.17244 18.1754V20.9194C1.17244 21.2331 1.2005 21.5344 1.25296 21.818C0.936123 21.9444 0.701172 22.3801 0.701172 22.9011ZM49.7638 13.4336H50.79C50.8838 13.4336 50.9717 13.5042 51.0242 13.6219L51.1498 13.902C51.4225 14.5092 51.568 15.2274 51.568 15.9613V16.3647C51.568 16.6022 51.441 16.7949 51.2843 16.7949H50.3963C50.2788 16.7949 50.1732 16.6852 50.1318 16.5193L49.4994 14.0174C49.4277 13.7361 49.5651 13.4336 49.7638 13.4336ZM26.8365 15.7585H24.9895C24.643 15.7585 24.3615 15.3316 24.3615 14.8062C24.3615 14.2807 24.643 13.8538 24.9895 13.8538H26.8365C27.183 13.8538 27.4645 14.2807 27.4645 14.8062C27.4645 15.3316 27.183 15.7585 26.8365 15.7585ZM40.6765 15.7585H38.8295C38.483 15.7585 38.2015 15.3316 38.2015 14.8062C38.2015 14.2807 38.483 13.8538 38.8295 13.8538H40.6765C41.0238 13.8538 41.3045 14.2807 41.3045 14.8062C41.3045 15.3316 41.0238 15.7585 40.6765 15.7585ZM41.8793 21.6014C41.9532 21.1152 42.0795 20.6603 42.2495 20.2491C42.4866 20.3981 42.7659 20.3455 42.9735 20.0888C42.9919 20.0653 43.0104 20.0406 43.0274 20.0149C43.0451 19.988 43.0614 19.9599 43.0761 19.9318C43.2453 19.6182 43.2807 19.1947 43.1825 18.835C43.4536 18.5773 43.7536 18.3858 44.0742 18.2737C44.1814 18.6657 44.4362 18.9425 44.734 18.9425C45.0318 18.9425 45.2866 18.6657 45.3938 18.2737C45.7144 18.3858 46.0144 18.5773 46.2855 18.835C46.1791 19.2272 46.2301 19.6955 46.4406 20.0149C46.6512 20.333 46.96 20.4114 47.2186 20.2489C47.3886 20.6601 47.5148 21.1151 47.5888 21.6013C47.3302 21.7638 47.1477 22.1503 47.1477 22.6019C47.1477 23.0546 47.3302 23.4411 47.5894 23.6036C47.5392 23.933 47.4653 24.2478 47.37 24.5447C47.3242 24.686 47.2724 24.8226 47.2178 24.9548C46.9592 24.7935 46.6504 24.8719 46.4405 25.1901C46.23 25.5094 46.1783 25.9778 46.2854 26.37C46.0143 26.6277 45.7143 26.8192 45.3937 26.9313C45.2865 26.5393 45.0317 26.2625 44.7339 26.2625C44.4362 26.2625 44.1813 26.5393 44.0742 26.9313C43.7535 26.8192 43.4536 26.6277 43.1824 26.37C43.2895 25.9778 43.2378 25.5095 43.0272 25.1901C42.8174 24.8719 42.5093 24.7936 42.2507 24.9548C42.1961 24.8226 42.1444 24.6859 42.0986 24.5447C42.0032 24.2478 41.9287 23.933 41.8784 23.6036C42.1378 23.4411 42.3202 23.0546 42.3202 22.6019C42.3204 22.1504 42.1379 21.7639 41.8793 21.6014ZM29.7895 10.0498L30.6148 4.31218C30.6909 3.78221 31.0064 3.41137 31.3632 3.4304L38.376 3.82038C38.6042 3.8326 38.8155 4.00522 38.9493 4.28635L41.4486 9.57036C41.8542 10.4286 41.4501 11.6219 40.7541 11.6219H30.625C30.0798 11.6219 29.6734 10.8577 29.7895 10.0498ZM14.9069 9.89196L19.817 5.29821C20.3504 4.79856 20.9245 4.49149 21.5229 4.3839L23.4675 4.03313C25.1653 3.72733 26.8808 3.51665 28.5956 3.39673C28.8445 3.37989 29.0307 3.73736 28.9649 4.10036L27.9801 9.50417C27.7519 10.7556 27.0005 11.6217 26.1442 11.6217H16.5574C15.9139 11.6217 15.3125 11.1321 14.9572 10.3175L14.8101 9.98029C14.8427 9.95123 14.8751 9.92217 14.9069 9.89196ZM6.7121 21.6014C6.73058 21.4804 6.75202 21.3605 6.77711 21.2429C6.82737 21.0076 6.88942 20.7813 6.96332 20.5651C7.00028 20.4575 7.04012 20.3523 7.08224 20.2492C7.3194 20.3982 7.59868 20.3456 7.80625 20.0889C7.82473 20.0654 7.84321 20.0407 7.86024 20.015C7.87796 19.9881 7.89423 19.96 7.90898 19.932C8.07801 19.6187 8.11351 19.1957 8.01566 18.8363C8.02144 18.8309 8.02691 18.8249 8.03276 18.8194C8.04866 18.8046 8.0647 18.7904 8.08074 18.776C8.12773 18.734 8.1751 18.6926 8.22377 18.6547C8.27722 18.6127 8.33158 18.5731 8.38686 18.5364L8.39234 18.5328C8.44587 18.4971 8.50023 18.4637 8.55536 18.4329L8.55855 18.4313C8.61459 18.4001 8.67139 18.3712 8.72895 18.3453C8.78704 18.319 8.84703 18.2949 8.90649 18.274C9.01363 18.6661 9.26903 18.9427 9.56678 18.9427C9.86454 18.9427 10.1194 18.666 10.2265 18.2739C10.2861 18.2949 10.3455 18.3185 10.4036 18.3448C10.4611 18.3708 10.5191 18.4001 10.5751 18.4313L10.5771 18.4323C10.6323 18.4632 10.6877 18.4973 10.7413 18.5328L10.7463 18.536C10.8016 18.5729 10.8564 18.6128 10.9099 18.6547C10.9588 18.6928 11.0063 18.7343 11.0535 18.7765C11.0693 18.7907 11.0852 18.8048 11.1009 18.8194L11.1049 18.8234C11.1093 18.8275 11.1136 18.8321 11.118 18.8363C11.0121 19.2282 11.0631 19.6959 11.2734 20.015C11.484 20.3331 11.7928 20.4115 12.0513 20.2491C12.0935 20.3522 12.1334 20.4574 12.1703 20.565C12.2442 20.7812 12.3063 21.0076 12.3565 21.2428C12.3816 21.3604 12.403 21.4802 12.4215 21.6013C12.1629 21.7638 11.9804 22.1503 11.9804 22.6019C11.9804 23.0546 12.1629 23.4411 12.4222 23.6036C12.4097 23.6887 12.3949 23.7727 12.3787 23.8556C12.3639 23.933 12.3469 24.0103 12.3292 24.0865C12.3203 24.1269 12.3099 24.1671 12.3003 24.2076C12.2804 24.2837 12.2597 24.3587 12.2375 24.4328C12.2264 24.4708 12.2147 24.5078 12.2028 24.5449C12.157 24.6861 12.1052 24.8228 12.0506 24.9549C11.792 24.7936 11.4832 24.872 11.2733 25.1903C11.0628 25.5095 11.0111 25.9779 11.1182 26.3701C10.8471 26.6278 10.5471 26.8194 10.2265 26.9314C10.1193 26.5394 9.86447 26.2626 9.56671 26.2626C9.26895 26.2626 9.01408 26.5394 8.90695 26.9314C8.58631 26.8194 8.28634 26.6278 8.0152 26.3701C8.12233 25.9779 8.07063 25.5097 7.86009 25.1903C7.65023 24.872 7.34221 24.7937 7.08361 24.9549C7.02894 24.8228 6.97724 24.686 6.93146 24.5449C6.9196 24.5078 6.90782 24.4708 6.89672 24.4328C6.87451 24.3587 6.85391 24.2837 6.83391 24.2076C6.78365 24.0126 6.74305 23.8109 6.71126 23.6036C6.97062 23.4411 7.15311 23.0546 7.15311 22.6019C7.15318 22.1504 6.9707 21.7639 6.7121 21.6014ZM3.59882 14.5875C3.80792 13.7741 4.13966 12.7949 4.60363 12.3097C4.67754 12.2324 4.76619 12.1944 4.8563 12.1944H5.88247C6.21939 12.1944 6.43951 12.7288 6.29177 13.1882L5.88468 14.4542C5.83001 14.6257 5.73101 14.7546 5.61133 14.8105L4.15882 15.5018C3.79309 15.6755 3.45914 15.1298 3.59882 14.5875Z" fill="#3BB338"/>
</svg>
