<svg width="33" height="31" viewBox="0 0 33 31" fill="none" xmlns="http://www.w3.org/2000/svg">
<path d="M16.5 30.0313C13.4406 30.0313 10.4499 29.179 7.90603 27.5823C5.36221 25.9856 3.37954 23.7161 2.20875 21.0609C1.03795 18.4056 0.73162 15.4839 1.32848 12.6651C1.92535 9.84631 3.39861 7.25709 5.56195 5.22486C7.72529 3.19263 10.4816 1.80866 13.4822 1.24797C16.4828 0.687279 19.5931 0.975046 22.4196 2.07488C25.2462 3.17472 27.6621 5.03722 29.3618 7.42688C31.0615 9.81653 31.9688 12.626 31.9688 15.5C31.9688 19.3539 30.339 23.05 27.4381 25.7752C24.5371 28.5003 20.6026 30.0313 16.5 30.0313ZM16.5 2.90626C13.8485 2.90626 11.2565 3.64487 9.05189 5.02869C6.84725 6.4125 5.12893 8.37938 4.11425 10.6806C3.09956 12.9818 2.83407 15.514 3.35135 17.9569C3.86864 20.3999 5.14546 22.6439 7.02036 24.4051C8.89525 26.1664 11.284 27.3658 13.8846 27.8518C16.4851 28.3377 19.1807 28.0883 21.6304 27.1351C24.08 26.1819 26.1738 24.5677 27.6469 22.4967C29.12 20.4257 29.9063 17.9908 29.9063 15.5C29.9063 12.1599 28.4938 8.95667 25.9797 6.59488C23.4655 4.23309 20.0556 2.90626 16.5 2.90626V2.90626Z" fill="white"/>
<path d="M20.8725 20.9831L15.7678 16.1878C15.6723 16.0973 15.5966 15.9899 15.5453 15.8719C15.494 15.7539 15.468 15.6275 15.4688 15.5V7.75H17.5313V15.1028L22.3369 19.6075L20.8725 20.9831Z" fill="white"/>
</svg>
