<svg width="31" height="22" viewBox="0 0 31 22" fill="none" xmlns="http://www.w3.org/2000/svg">
<path d="M26.9209 0.493652H4.17313C2.07939 0.493652 0.381836 2.04376 0.381836 3.95565V17.8036C0.381836 19.7155 2.07939 21.2656 4.17313 21.2656H26.9209C29.0146 21.2656 30.7122 19.7155 30.7122 17.8036V3.95565C30.7122 2.04376 29.0146 0.493652 26.9209 0.493652ZM20.6804 9.73183L28.7054 3.45187C28.761 3.61415 28.8165 3.77644 28.8165 3.95565V17.8036C28.8165 17.9237 28.7665 18.0302 28.7406 18.1434L20.6804 9.73183ZM26.9209 2.22465C27.0468 2.22465 27.1578 2.26863 27.2763 2.29059L15.547 11.4713L3.81769 2.29059C3.93617 2.26863 4.04724 2.22465 4.17313 2.22465H26.9209ZM2.35248 18.1417C2.32653 18.0284 2.27748 17.9237 2.27748 17.8036V3.95565C2.27748 3.77644 2.33394 3.61415 2.3895 3.45187L10.4118 9.73015L2.35248 18.1417ZM4.17313 19.5346C3.98155 19.5346 3.8075 19.4839 3.63257 19.4349L11.852 10.8576L14.9306 13.2665C15.1073 13.4068 15.3276 13.4761 15.547 13.4761C15.7664 13.4761 15.9867 13.4068 16.1634 13.2665L19.242 10.8577L27.4614 19.4349C27.2874 19.4839 27.1134 19.5346 26.9209 19.5346H4.17313Z" fill="white"/>
</svg>
