<svg width="35" height="32" viewBox="0 0 35 32" fill="none" xmlns="http://www.w3.org/2000/svg">
<g clip-path="url(#clip0_589_145)">
<path d="M23.6556 28.0951C22.6184 28.088 21.5857 27.9666 20.5791 27.7336C17.1028 26.9519 13.523 24.9688 10.5009 22.1496C7.4788 19.3304 5.34847 15.9933 4.50973 12.7563C3.62656 9.35129 4.25645 6.43815 6.28136 4.55085L6.85953 4.01198C7.38409 3.52404 8.09493 3.25 8.83604 3.25C9.57715 3.25 10.288 3.52404 10.8125 4.01198L14.135 7.10804C14.6589 7.5968 14.9531 8.25938 14.9531 8.95023C14.9531 9.64107 14.6589 10.3037 14.135 10.7924L12.1724 12.621C13.1133 14.1598 14.3929 15.6998 15.9053 17.1094C17.4177 18.519 19.0713 19.7123 20.7216 20.5892L22.6835 18.76C22.9431 18.518 23.2512 18.3261 23.5903 18.1951C23.9295 18.0641 24.293 17.9967 24.6601 17.9967C25.0271 17.9967 25.3906 18.0641 25.7298 18.1951C26.0689 18.3261 26.377 18.518 26.6366 18.76L29.9584 21.856C30.4823 22.3446 30.7767 23.0071 30.7767 23.6979C30.7767 24.3887 30.4823 25.0512 29.9584 25.5398L29.3795 26.0787C27.952 27.4117 25.9762 28.0951 23.6556 28.0951ZM8.83604 5.10271C8.73017 5.10222 8.62527 5.12142 8.52747 5.1592C8.42967 5.19698 8.34095 5.25256 8.26649 5.32271L7.68766 5.86158C6.1713 7.27489 5.72839 9.56944 6.44049 12.3188C7.19436 15.2313 9.13507 18.2576 11.9046 20.8382C14.6741 23.4189 17.9203 25.2259 21.0458 25.931C23.9964 26.5947 26.4569 26.1819 27.9732 24.7686L28.5514 24.2297C28.7025 24.0888 28.7873 23.8977 28.7873 23.6985C28.7873 23.4993 28.7025 23.3083 28.5514 23.1674L25.2303 20.0713C25.0791 19.9305 24.8741 19.8514 24.6604 19.8514C24.4467 19.8514 24.2417 19.9305 24.0905 20.0713L21.6035 22.3894C21.4542 22.5285 21.2614 22.6198 21.0528 22.65C20.8442 22.6803 20.6307 22.6478 20.4431 22.5574C18.4043 21.5749 16.3489 20.1443 14.499 18.4201C12.6492 16.6959 11.1175 14.7815 10.0607 12.8812C9.96361 12.7065 9.92871 12.5075 9.96101 12.3131C9.99331 12.1187 10.0911 11.9389 10.2403 11.7997L12.7281 9.48169C12.8791 9.34078 12.964 9.14973 12.964 8.95054C12.964 8.75134 12.8791 8.56029 12.7281 8.41939L9.40625 5.32271C9.33156 5.25268 9.24269 5.19718 9.14481 5.15942C9.04693 5.12165 8.94197 5.10238 8.83604 5.10271V5.10271Z" fill="white"/>
<path d="M24.7177 16.9512C24.4539 16.9512 24.201 16.8535 24.0144 16.6797C23.8279 16.5058 23.7231 16.2701 23.7231 16.0242C23.7212 14.398 23.0273 12.839 21.7936 11.689C20.56 10.5391 18.8873 9.89215 17.1425 9.89018C16.8787 9.89018 16.6258 9.79252 16.4392 9.61868C16.2527 9.44484 16.1479 9.20907 16.1479 8.96322C16.1479 8.71737 16.2527 8.4816 16.4392 8.30776C16.6258 8.13392 16.8787 8.03625 17.1425 8.03625C21.868 8.03625 25.7122 11.6205 25.7122 16.0242C25.7122 16.2701 25.6075 16.5058 25.4209 16.6797C25.2344 16.8535 24.9815 16.9512 24.7177 16.9512Z" fill="white"/>
<path d="M28.9213 16.9512C28.6576 16.9512 28.4046 16.8535 28.2181 16.6797C28.0316 16.5058 27.9268 16.2701 27.9268 16.0242C27.9268 10.4816 23.0866 5.97221 17.1425 5.97221C16.8787 5.97221 16.6258 5.87455 16.4392 5.70071C16.2527 5.52687 16.1479 5.2911 16.1479 5.04525C16.1479 4.7994 16.2527 4.56363 16.4392 4.38979C16.6258 4.21595 16.8787 4.11829 17.1425 4.11829C24.1859 4.11829 29.9159 9.45945 29.9159 16.0242C29.9159 16.2701 29.8111 16.5058 29.6246 16.6797C29.4381 16.8535 29.1851 16.9512 28.9213 16.9512Z" fill="white"/>
</g>
<defs>
<clipPath id="clip0_589_145">
<rect width="33.9475" height="31.6404" fill="white" transform="translate(0.533691 0.282471)"/>
</clipPath>
</defs>
</svg>
