<svg width="285" height="285" viewBox="0 0 285 285" fill="none" xmlns="http://www.w3.org/2000/svg">
<g clip-path="url(#clip0_858_4)">
<path d="M282.153 76.511L267.879 62.238C265.977 60.332 263.786 59.382 261.309 59.382C258.838 59.382 256.648 60.332 254.746 62.238L142.537 174.441L30.3333 62.241C28.4303 60.335 26.2403 59.385 23.7663 59.385C21.2913 59.385 19.1013 60.335 17.1993 62.241L2.92729 76.515C1.02129 78.417 0.0712891 80.607 0.0712891 83.082C0.0712891 85.555 1.02429 87.745 2.92729 89.647L135.97 222.693C137.872 224.596 140.063 225.547 142.537 225.547C145.011 225.547 147.198 224.596 149.099 222.693L282.153 89.647C284.055 87.744 285 85.554 285 83.082C285 80.607 284.055 78.417 282.153 76.511Z" fill="#39CE63"/>
</g>
<defs>
<clipPath id="clip0_858_4">
<rect width="284.929" height="284.929" fill="white" transform="translate(0.0712891)"/>
</clipPath>
</defs>
</svg>
