<svg width="45" height="40" viewBox="0 0 45 40" fill="none" xmlns="http://www.w3.org/2000/svg">
<path d="M27.708 37.4628C35.8855 37.4628 42.5147 31.8116 42.5147 24.8406C42.5147 17.8696 35.8855 12.2185 27.708 12.2185C19.5305 12.2185 12.9014 17.8696 12.9014 24.8406C12.9014 31.8116 19.5305 37.4628 27.708 37.4628Z" fill="#E31E24"/>
<path fill-rule="evenodd" clip-rule="evenodd" d="M30.4726 13.2456C36.459 13.2456 41.312 17.3826 41.312 22.4858C41.312 27.589 36.459 31.7259 30.4726 31.7259C24.4863 31.7259 19.6333 27.589 19.6333 22.4858C19.6333 17.3826 24.4863 13.2456 30.4726 13.2456Z" fill="#820000"/>
<path fill-rule="evenodd" clip-rule="evenodd" d="M27.7088 12.2185C34.0804 12.2185 39.5135 15.6512 41.6012 20.465C44.6554 27.5079 35.0488 19.0817 29.5467 19.3289C21.382 19.6957 18.732 23.8878 15.806 24.8406C13.6313 25.5489 12.9814 23.3317 13.1333 22.6066C14.3709 16.7019 20.4269 12.2185 27.7088 12.2185Z" fill="#FEFEFE"/>
<path fill-rule="evenodd" clip-rule="evenodd" d="M27.708 12.2185C35.8855 12.2185 42.5147 17.8696 42.5147 24.8406C42.5147 31.8116 35.8855 37.4628 27.708 37.4628C19.5305 37.4628 12.9014 31.8116 12.9014 24.8406C12.9014 17.8696 19.5305 12.2185 27.708 12.2185Z" fill="#FFED00"/>
<path fill-rule="evenodd" clip-rule="evenodd" d="M21.876 16.2146C14.3108 16.2917 8.61381 34.9369 31.8198 37.0124C23.9223 38.8163 15.8015 34.8195 13.6854 28.0872C11.5692 21.3548 16.2334 14.3544 24.1553 12.6282C28.1163 11.7652 32.127 12.3328 35.4088 13.9481C38.6907 15.5633 24.2866 8.94247 21.876 16.2146Z" fill="#850500"/>
<path fill-rule="evenodd" clip-rule="evenodd" d="M42.5147 24.8406C42.5147 31.8104 35.8841 37.4627 27.708 37.4627C19.5319 37.4627 12.9014 31.8104 12.9014 24.8406C16.469 36.204 26.1228 37.3912 33.0162 35.285C39.0886 33.4298 42.1858 27.4546 42.5147 24.8406Z" fill="#FFF59E"/>
<path fill-rule="evenodd" clip-rule="evenodd" d="M30.4726 13.2456C36.458 13.2456 41.312 17.3834 41.312 22.4858C41.312 26.2328 38.6941 29.4597 34.933 30.9095C32.0482 29.0144 30.3586 22.6741 33.0008 20.2079C28.9799 20.6613 25.0273 23.3188 22.8085 29.0192C21.5211 27.9218 22.9219 15.9346 33.4513 14.5723C29.3608 13.879 22.3957 16.2455 19.6333 22.4858C19.6333 17.3834 24.4873 13.2456 30.4726 13.2456Z" fill="#820000"/>
<path fill-rule="evenodd" clip-rule="evenodd" d="M11.5928 15.709C17.5782 15.709 22.4322 19.8468 22.4322 24.9492C22.4322 28.6961 19.8143 31.9231 16.0532 33.3729C13.1683 31.4778 11.4788 25.1375 14.121 22.6713C10.1 23.1246 6.14747 25.7822 3.92859 31.4826C2.64121 30.3852 4.04203 18.398 14.5715 17.0357C10.4809 16.3423 3.51583 18.7088 0.753418 24.9492C0.753418 19.8468 5.6074 15.709 11.5928 15.709Z" fill="#E31E24"/>
<path fill-rule="evenodd" clip-rule="evenodd" d="M19.2357 17.3225C18.1041 16.9368 16.2222 18.6811 15.0323 21.2184C13.8423 23.7557 13.795 26.1253 14.9265 26.5109C16.0581 26.8965 17.94 25.1523 19.13 22.6149C20.3199 20.0776 20.3672 17.7081 19.2357 17.3225Z" fill="#FFF273" fill-opacity="0.501961"/>
<path fill-rule="evenodd" clip-rule="evenodd" d="M20.8433 14.4249C19.357 13.9184 16.885 16.2095 15.3221 19.5422C13.7591 22.875 13.6969 25.9873 15.1831 26.4939C16.6695 27.0004 19.1414 24.7093 20.7044 21.3765C22.2673 18.0438 22.3295 14.9314 20.8433 14.4249Z" fill="#FFF273"/>
<path fill-rule="evenodd" clip-rule="evenodd" d="M20.5115 20.3758C19.9581 19.7125 17.85 20.1808 15.8031 21.4219C13.7561 22.663 12.5454 24.2068 13.0989 24.8702C13.6523 25.5336 15.7605 25.0653 17.8073 23.8241C19.8544 22.5831 21.0651 21.0393 20.5115 20.3758Z" fill="#FFF273" fill-opacity="0.501961"/>
<path fill-rule="evenodd" clip-rule="evenodd" d="M18.2966 18.9599C17.3945 18.693 15.9954 20.1164 15.1718 22.1393C14.348 24.1622 14.4116 26.0185 15.3138 26.2854C16.2158 26.5524 17.615 25.1289 18.4386 23.1061C19.2623 21.0831 19.1988 19.2268 18.2966 18.9599Z" fill="#FFF9C7" fill-opacity="0.501961"/>
<path fill-rule="evenodd" clip-rule="evenodd" d="M17.7358 20.3348C17.1723 20.168 16.2984 21.0573 15.7837 22.3209C15.2692 23.5847 15.3089 24.7443 15.8725 24.911C16.436 25.0777 17.31 24.1886 17.8246 22.9248C18.3391 21.6612 18.2994 20.5015 17.7358 20.3348Z" fill="#FFFAD9" fill-opacity="0.501961"/>
<path fill-rule="evenodd" clip-rule="evenodd" d="M17.3633 21.2501C17.0251 21.1501 16.5007 21.6836 16.1919 22.4419C15.8831 23.2001 15.907 23.896 16.2452 23.996C16.5833 24.0961 17.1078 23.5625 17.4165 22.8042C17.7253 22.046 17.7015 21.3502 17.3633 21.2501Z" fill="#FEFEFE" fill-opacity="0.501961"/>
<path fill-rule="evenodd" clip-rule="evenodd" d="M17.7285 15.2402C19.9905 6.81244 29.8082 6.49913 36.7113 6.32495C36.7164 6.3277 36.7216 6.33092 36.7267 6.33376C37.4178 6.31226 38.2304 7.3041 38.586 8.63633C38.9606 10.0393 38.6866 11.2892 37.9742 11.4273C37.9283 11.4362 37.8816 11.4402 37.8344 11.4396C36.3016 11.5895 34.72 12.2342 34.2873 12.9589C37.6899 14.7618 39.3017 16.2531 40.8807 18.6671C43.0453 21.9764 45.0359 35.2175 43.613 37.3832C41.5562 40.5138 38.083 39.7085 33.4759 39.509C31.4258 39.4201 27.7625 38.2557 25.6935 37.3933L25.7265 37.3501C26.3748 37.424 27.0361 37.463 27.7081 37.463C35.2723 37.463 41.5129 32.6248 42.4047 26.3815V26.381C42.4052 26.5513 42.4054 26.6022 42.4056 26.3747L42.4057 26.3742C42.4138 26.3166 42.4216 26.2588 42.4289 26.2009C42.4345 26.1568 42.4398 26.1125 42.4448 26.0683C42.4528 25.9988 42.4601 25.9291 42.4666 25.8592C42.4695 25.8291 42.4722 25.7991 42.4747 25.7692C42.4821 25.6847 42.4884 25.6001 42.4936 25.5153L42.4964 25.4697C42.5022 25.3711 42.5066 25.2722 42.5096 25.1731L42.5101 25.1603C42.5132 25.0541 42.5147 24.9476 42.5147 24.8408C42.5147 17.871 35.8842 12.2187 27.7081 12.2187C27.5828 12.2187 27.4579 12.22 27.3333 12.2226L27.3112 12.2232C27.1947 12.2259 27.0784 12.2296 26.9626 12.2345L26.922 12.2364C26.8112 12.2413 26.7006 12.2473 26.5905 12.2543L26.5458 12.2572C26.4365 12.2644 26.3276 12.2726 26.2191 12.2819L26.1744 12.2857C26.0645 12.2954 25.955 12.3061 25.8457 12.3178L25.8083 12.3217C25.6954 12.3341 25.583 12.3475 25.471 12.362L25.4455 12.3652C25.3287 12.3805 25.2121 12.3969 25.0961 12.4145L25.0658 12.4194C24.957 12.436 24.8486 12.4537 24.7407 12.4725L24.6951 12.4806C24.5934 12.4985 24.4918 12.5173 24.3907 12.537L24.3294 12.5492C24.2329 12.5684 24.1369 12.5884 24.0413 12.6092L23.9755 12.6236C23.8817 12.6444 23.7883 12.666 23.6951 12.6883L23.625 12.7052C23.5329 12.7277 23.4411 12.7511 23.3497 12.775C23.3267 12.781 23.3037 12.7869 23.2807 12.7931C23.188 12.8178 23.0956 12.8435 23.0037 12.8697C22.9756 12.8778 22.9476 12.8858 22.9197 12.894C22.8303 12.92 22.7414 12.9466 22.6528 12.9741C22.6244 12.9829 22.5959 12.9919 22.5676 13.0009C22.4829 13.0276 22.3986 13.0549 22.3147 13.0828C22.2845 13.0929 22.2545 13.1032 22.2244 13.1134C22.1457 13.1402 22.0673 13.1675 21.9892 13.1953C21.9574 13.2067 21.9257 13.2183 21.8941 13.2297C21.8186 13.2573 21.7434 13.2853 21.6685 13.3139C21.6347 13.3268 21.601 13.3398 21.5673 13.3529C21.495 13.381 21.423 13.4098 21.3513 13.4389C21.3163 13.4531 21.2813 13.4673 21.2464 13.4817C21.177 13.5105 21.1079 13.5398 21.0391 13.5696C20.9912 13.5902 20.9436 13.611 20.896 13.6321C20.8399 13.6569 20.784 13.6821 20.7284 13.7075C20.6765 13.7311 20.6248 13.7551 20.5733 13.7794C20.5208 13.804 20.4686 13.8289 20.4165 13.854C20.3648 13.879 20.3134 13.9043 20.262 13.9298C20.2096 13.9558 20.1573 13.9822 20.1052 14.0088C20.0555 14.0342 20.0062 14.0598 19.9569 14.0857C19.9009 14.115 19.8452 14.1446 19.7897 14.1746C19.7468 14.1977 19.7043 14.2211 19.6617 14.2447C19.6077 14.2745 19.554 14.3046 19.5004 14.3351C19.4474 14.3653 19.3948 14.3958 19.3422 14.4265C19.3009 14.4508 19.2596 14.475 19.2186 14.4996C19.1583 14.5356 19.0983 14.5722 19.0385 14.609C19.0054 14.6295 18.9724 14.65 18.9394 14.6707C18.877 14.7098 18.8149 14.7495 18.7532 14.7896C18.7233 14.8089 18.6936 14.8284 18.6638 14.848C18.6012 14.8892 18.5389 14.9309 18.4771 14.973C18.4493 14.992 18.4215 15.0111 18.3938 15.0302C18.332 15.0728 18.2706 15.1158 18.2097 15.1594C18.1816 15.1794 18.1536 15.1997 18.1257 15.2198C18.0661 15.2631 18.0066 15.3066 17.9477 15.3506C17.9083 15.3802 17.8692 15.4098 17.8301 15.4397L17.817 15.4496L17.7285 15.2402Z" fill="#E31E24"/>
<path fill-rule="evenodd" clip-rule="evenodd" d="M43.4353 37.6405C41.3589 40.4682 37.9533 39.703 33.4772 39.5091C31.4271 39.4203 27.7638 38.2559 25.6948 37.3935L25.7278 37.3502C26.3761 37.4242 27.0374 37.4631 27.7094 37.4631C30.8076 37.4631 33.6834 36.651 36.0608 35.2637C29.0314 39.225 40.3153 40.9854 43.4353 37.6405Z" fill="#FFED00"/>
<path fill-rule="evenodd" clip-rule="evenodd" d="M44.0932 34.2457C44.0296 35.8217 43.875 36.9861 43.6139 37.3835C43.5844 37.4283 43.5547 37.472 43.5247 37.5152L43.5113 37.5344C43.4829 37.5751 43.454 37.6151 43.425 37.6544L43.4072 37.6783C43.378 37.7174 43.3485 37.7559 43.3188 37.7937L43.3069 37.8086C43.2779 37.8451 43.2487 37.881 43.2191 37.9162L43.2088 37.9288C43.1782 37.965 43.1475 38.0004 43.1165 38.0353L43.0973 38.0567C43.067 38.0904 43.0366 38.1235 43.0057 38.1559L42.986 38.1764C42.9553 38.2083 42.9245 38.2398 42.8934 38.2705L42.8811 38.2824C42.8511 38.3119 42.8208 38.3407 42.7904 38.3689L42.7685 38.3891C42.7372 38.4178 42.7057 38.4459 42.6739 38.4734L42.6501 38.4939C42.6178 38.5217 42.5853 38.5489 42.5525 38.5755L42.5343 38.5899C42.5037 38.6145 42.4729 38.6384 42.4419 38.662L42.4243 38.6755C42.3913 38.7003 42.3579 38.7244 42.3245 38.7482L42.297 38.7676C42.2646 38.7903 42.2318 38.8125 42.1989 38.8343L42.1697 38.8533C42.137 38.8745 42.1044 38.8954 42.0713 38.9157L42.0502 38.9284C42.0194 38.9471 41.9883 38.9653 41.9572 38.9832C41.9472 38.9889 41.9373 38.9946 41.9272 39.0003C41.8938 39.0191 41.8603 39.0375 41.8266 39.0554L41.7913 39.0739C41.7579 39.0914 41.7243 39.1084 41.6904 39.1251C41.6795 39.1304 41.6686 39.1356 41.6576 39.1408C41.6292 39.1544 41.6006 39.1679 41.572 39.181C41.5594 39.1867 41.5468 39.1926 41.5341 39.1982C41.5022 39.2125 41.4701 39.2263 41.4378 39.2399C41.4241 39.2456 41.4104 39.2514 41.3966 39.2571C41.3629 39.2709 41.329 39.2845 41.2949 39.2976C41.2816 39.3028 41.2683 39.3078 41.2551 39.3127C41.2251 39.3241 41.1948 39.3351 41.1646 39.3459C41.1474 39.352 41.1304 39.358 41.1133 39.3638C41.086 39.3732 41.0585 39.3824 41.031 39.3914C41.016 39.3963 41.001 39.4013 40.986 39.4061C40.9524 39.4167 40.9187 39.427 40.8848 39.4371C40.868 39.4421 40.851 39.447 40.8341 39.4518C40.8018 39.4611 40.7692 39.4703 40.7365 39.4791C40.7185 39.4839 40.7005 39.4886 40.6824 39.4932C40.6579 39.4996 40.6335 39.5057 40.6088 39.5118C40.5835 39.518 40.5579 39.5242 40.5323 39.5302C40.5079 39.5358 40.4835 39.5414 40.4589 39.5468C40.4394 39.5512 40.4198 39.5555 40.4 39.5597C40.3671 39.5666 40.334 39.5734 40.3007 39.58C40.2803 39.584 40.2598 39.5878 40.2393 39.5917C40.2148 39.5963 40.1903 39.6007 40.1656 39.6052C40.1377 39.6101 40.1097 39.6149 40.0816 39.6196C40.0588 39.6234 40.0359 39.627 40.013 39.6306C39.9852 39.635 39.9572 39.6392 39.929 39.6432C39.9033 39.647 39.8775 39.6507 39.8515 39.6542C39.8284 39.6575 39.8053 39.6605 39.782 39.6634C39.7585 39.6664 39.7348 39.6693 39.7112 39.6721C39.6778 39.6761 39.6445 39.68 39.611 39.6836L39.5577 39.6892C39.5186 39.6933 39.4793 39.697 39.4399 39.7006L39.3857 39.7054C39.3601 39.7077 39.3344 39.7097 39.3086 39.7118C39.2772 39.7142 39.2458 39.7166 39.2141 39.7187C39.1861 39.7207 39.1579 39.7225 39.1297 39.7242L39.0896 39.7266C39.043 39.7293 38.996 39.7318 38.9488 39.7341L38.9082 39.7359C38.8554 39.7382 38.8023 39.7402 38.7489 39.7419L38.7288 39.7426C38.6972 39.7435 38.6656 39.7444 38.6338 39.7452C41.2041 38.2781 43.287 37.4545 42.3587 33.5769C41.6356 30.5565 43.6833 29.866 42.3635 26.6502C42.3654 26.6392 42.3668 26.628 42.3687 26.6171C42.3815 26.5835 42.3939 26.5626 42.406 26.521V26.5211V26.5218V26.5226L42.4062 26.5229V26.5233V26.524V26.5244V26.5245V26.5251V26.5256V26.5257V26.526V26.5264V26.5266V26.5268V26.5271V26.5277V26.5276V26.5275V26.5273V26.527V26.5267V26.5263L42.4063 26.5254V26.5251V26.5249V26.5242V26.5236V26.5222V26.5219V26.5213V26.5204C42.5877 25.8992 42.604 24.6843 42.627 23.4812C43.4809 26.9411 44.0855 31.2797 44.0932 34.2457ZM42.4062 26.5277V26.5277V26.5277Z" fill="#840300"/>
<path fill-rule="evenodd" clip-rule="evenodd" d="M44.0932 34.2457C44.0296 35.8217 43.875 36.9861 43.6139 37.3835C43.5844 37.4283 43.5547 37.472 43.5247 37.5152L43.5113 37.5344C43.4829 37.5751 43.454 37.6151 43.425 37.6544L43.4072 37.6783C43.378 37.7174 43.3485 37.7559 43.3188 37.7937L43.3069 37.8086C43.2779 37.8451 43.2487 37.881 43.2191 37.9162L43.2088 37.9288C43.1782 37.965 43.1475 38.0004 43.1165 38.0353L43.0973 38.0567C43.067 38.0904 43.0366 38.1235 43.0057 38.1559L42.986 38.1764C42.9553 38.2083 42.9245 38.2398 42.8934 38.2705L42.8811 38.2824C42.8511 38.3119 42.8208 38.3407 42.7904 38.3689L42.7685 38.3891C42.7372 38.4178 42.7057 38.4459 42.6739 38.4734L42.6501 38.4939C42.6178 38.5217 42.5853 38.5489 42.5525 38.5755L42.5343 38.5899C42.5037 38.6145 42.4729 38.6384 42.4419 38.662L42.4243 38.6755C42.3913 38.7003 42.3579 38.7244 42.3245 38.7482L42.297 38.7676C42.2646 38.7903 42.2318 38.8125 42.1989 38.8343L42.1697 38.8533C42.137 38.8745 42.1044 38.8954 42.0713 38.9157L42.0502 38.9284C42.0194 38.9471 41.9883 38.9653 41.9572 38.9832C41.9472 38.9889 41.9373 38.9946 41.9272 39.0003C41.8938 39.0191 41.8603 39.0375 41.8266 39.0554L41.7913 39.0739C41.7579 39.0914 41.7243 39.1084 41.6904 39.1251C41.6795 39.1304 41.6686 39.1356 41.6576 39.1408C41.6292 39.1544 41.6006 39.1679 41.572 39.181C41.5594 39.1867 41.5468 39.1926 41.5341 39.1982C41.5022 39.2125 41.4701 39.2263 41.4378 39.2399C41.4241 39.2456 41.4104 39.2514 41.3966 39.2571C41.3629 39.2709 41.329 39.2845 41.2949 39.2976C41.2816 39.3028 41.2683 39.3078 41.2551 39.3127C41.2251 39.3241 41.1948 39.3351 41.1646 39.3459C41.1474 39.352 41.1304 39.358 41.1133 39.3638C41.086 39.3732 41.0585 39.3824 41.031 39.3914C41.016 39.3963 41.001 39.4013 40.986 39.4061C40.9524 39.4167 40.9187 39.427 40.8848 39.4371C40.868 39.4421 40.851 39.447 40.8341 39.4518C40.8018 39.4611 40.7692 39.4703 40.7365 39.4791C40.7185 39.4839 40.7005 39.4886 40.6824 39.4932C40.6579 39.4996 40.6335 39.5057 40.6088 39.5118C40.5835 39.518 40.5579 39.5242 40.5323 39.5302C40.5079 39.5358 40.4835 39.5414 40.4589 39.5468C40.4394 39.5512 40.4198 39.5555 40.4 39.5597C40.3671 39.5666 40.334 39.5734 40.3007 39.58C40.2803 39.584 40.2598 39.5878 40.2393 39.5917C40.2148 39.5963 40.1903 39.6007 40.1656 39.6052C40.1377 39.6101 40.1097 39.6149 40.0816 39.6196C40.0588 39.6234 40.0359 39.627 40.013 39.6306C39.9852 39.635 39.9572 39.6392 39.929 39.6432C39.9033 39.647 39.8775 39.6507 39.8515 39.6542C39.8284 39.6575 39.8053 39.6605 39.782 39.6634C39.7585 39.6664 39.7348 39.6693 39.7112 39.6721C39.6778 39.6761 39.6445 39.68 39.611 39.6836L39.5577 39.6892C39.5186 39.6933 39.4793 39.697 39.4399 39.7006L39.3857 39.7054C39.3601 39.7077 39.3344 39.7097 39.3086 39.7118C39.2772 39.7142 39.2458 39.7166 39.2141 39.7187C39.1861 39.7207 39.1579 39.7225 39.1297 39.7242L39.0896 39.7266C39.043 39.7293 38.996 39.7318 38.9488 39.7341L38.9082 39.7359C38.8554 39.7382 38.8023 39.7402 38.7489 39.7419L38.7288 39.7426C38.6972 39.7435 38.6656 39.7444 38.6338 39.7452C41.2672 37.3444 39.8101 36.7173 40.6187 33.8633C41.5069 30.7286 42.6523 27.3537 42.3635 26.6502C42.3654 26.6392 42.3668 26.628 42.3687 26.6171C42.3815 26.5835 42.3939 26.5626 42.406 26.521V26.5211V26.5218V26.5226L42.4062 26.5229V26.5233V26.524V26.5244V26.5245V26.5251V26.5256V26.5257V26.526V26.5264V26.5266V26.5268V26.5271V26.5277V26.5276V26.5275V26.5273V26.527V26.5267V26.5263L42.4063 26.5254V26.5251V26.5249V26.5242V26.5236V26.5222V26.5219V26.5213V26.5204C42.5877 25.8992 42.604 24.6843 42.627 23.4812C43.4809 26.9411 44.0855 31.2797 44.0932 34.2457ZM42.4062 26.5277V26.5277V26.5277Z" fill="#840300"/>
<path fill-rule="evenodd" clip-rule="evenodd" d="M17.9248 14.5959C20.5059 6.79738 29.991 6.49458 36.7133 6.32495C36.7184 6.3277 36.7236 6.33092 36.7287 6.33376C36.8093 6.33129 36.8916 6.34266 36.9745 6.36662C36.5702 6.80069 35.83 7.51388 35.8233 7.854C25.9021 5.94799 19.4739 10.7643 17.9248 14.5959Z" fill="#FEFEFE"/>
<path fill-rule="evenodd" clip-rule="evenodd" d="M34.5298 6.39098C34.5519 4.65527 32.6876 3.15587 30.0023 3.06258C30.1846 2.66317 30.6556 2.06979 30.5555 1.93634C30.0238 1.44753 29.177 1.29873 28.4067 1.68591C27.7577 1.25421 26.4652 1.32023 26.2872 1.5681C25.8878 2.1574 25.5805 3.27653 25.0891 3.33591C24.4245 2.31803 23.549 1.55199 22.5775 0.900462C21.8937 0.449532 19.4603 2.27513 19.8356 2.66809C21.2377 3.6927 22.605 4.66834 21.7866 5.54898C20.0187 8.20237 15.5793 14.1855 16.0894 19.4996C16.5854 17.8264 17.1402 16.3876 17.7557 15.1452C19.8309 7.66033 27.9209 6.64548 34.5298 6.39098Z" fill="#FFDB00"/>
<path fill-rule="evenodd" clip-rule="evenodd" d="M25.0906 3.3356C24.426 2.31772 23.5505 1.55168 22.579 0.900146C22.5282 1.04203 22.2081 1.27692 22.1313 1.30732C22.5397 1.82076 23.0503 1.88242 23.4294 2.52922C24.0611 3.60715 23.0173 3.93902 22.6481 4.75791C23.2518 4.00068 24.9721 3.36449 25.0906 3.3356Z" fill="#FCC300"/>
<path fill-rule="evenodd" clip-rule="evenodd" d="M33.8261 4.6106C33.1452 3.8403 32.0117 3.27411 30.6039 3.10817C26.585 2.75887 23.0061 4.30866 21.6137 5.8092L21.5372 5.92229L21.5228 5.94369L21.4584 6.03869L21.4273 6.08453L21.3774 6.15812L21.3286 6.23001L21.2941 6.28068L21.2268 6.37975L21.2088 6.40627L21.1222 6.53395L21.1215 6.53489L21.0324 6.66645L20.9557 6.77992L20.9335 6.81288L20.8719 6.90399L20.8324 6.96271L20.7636 7.0651L20.7357 7.10668L20.661 7.21834L20.6505 7.23397C20.5621 7.36648 20.4717 7.50248 20.3802 7.64152L20.3583 7.67477L20.2698 7.80992L20.26 7.82489L20.1682 7.96563L20.151 7.99224C20.0221 8.19076 19.8912 8.39506 19.7592 8.60457L19.7462 8.62531C19.7155 8.67427 19.6845 8.72371 19.6536 8.77325L19.6373 8.7992C19.6051 8.85092 19.5728 8.90301 19.5405 8.95539L19.5401 8.95586C19.366 9.23791 19.1907 9.5285 19.0165 9.82675L19.0104 9.83726C18.5914 10.5548 18.1783 11.3157 17.7998 12.1052L17.7962 12.1126C17.6075 12.5067 17.4271 12.908 17.2591 13.3145L17.2567 13.3204C17.0888 13.7271 16.933 14.1389 16.7931 14.5543L16.7908 14.561C16.6748 14.9055 16.5698 15.2522 16.4776 15.6003L16.475 15.6102C16.4574 15.6767 16.4403 15.7434 16.4236 15.81L16.4194 15.827C16.334 16.1715 16.2616 16.5169 16.2042 16.8622L16.2009 16.8824C16.1903 16.9465 16.1803 17.0106 16.1708 17.0748L16.1668 17.1022C16.1572 17.1675 16.1481 17.2328 16.1396 17.2981C16.3304 17.229 17.4879 13.8737 17.7623 13.2258C20.8544 5.9257 27.0666 2.57503 33.8261 4.6106Z" fill="#FEFEFE"/>
<path fill-rule="evenodd" clip-rule="evenodd" d="M34.5304 6.39115C34.5366 5.90149 34.3892 5.41267 34.1154 4.96704C32.3507 6.01353 22.7576 6.98434 22.123 9.22365C25.5904 7.01683 30.3556 6.55188 34.5304 6.39115Z" fill="#FCC300"/>
<path fill-rule="evenodd" clip-rule="evenodd" d="M22.295 0.912425C22.3646 0.97162 21.5302 1.39706 20.9984 1.85036C20.4668 2.30356 19.9791 2.62302 19.9097 2.56383C19.8401 2.50454 20.2149 2.08884 20.7465 1.63564C21.2783 1.18244 22.2255 0.853134 22.295 0.912425Z" fill="#FCC300"/>
<path fill-rule="evenodd" clip-rule="evenodd" d="M28.4156 1.73832C28.4063 1.79155 27.779 1.6761 27.2608 1.68633C26.7426 1.69665 26.3178 1.70811 26.3391 1.59303C26.3606 1.47795 26.7342 1.41611 27.2524 1.40578C27.7707 1.39555 28.425 1.68509 28.4156 1.73832Z" fill="#FCC300"/>
<path fill-rule="evenodd" clip-rule="evenodd" d="M28.4693 1.69871C28.4621 1.75232 29.103 1.7651 29.6001 1.87847C30.0972 1.99184 30.5038 2.08779 30.5183 1.97158C30.5328 1.85536 30.1334 1.65173 29.6362 1.53836C29.1392 1.42499 28.4765 1.64501 28.4693 1.69871Z" fill="#FCC300"/>
<path d="M37.9748 11.428C38.6873 11.2897 38.9612 10.0401 38.5866 8.6369C38.2119 7.23367 37.3307 6.20818 36.6182 6.3464C35.9057 6.48463 35.6318 7.73422 36.0064 9.13745C36.381 10.5407 37.2623 11.5662 37.9748 11.428Z" fill="#F59F0D"/>
<path d="M37.9671 11.2451C38.5499 11.1151 38.7292 9.93963 38.3675 8.61964C38.0059 7.29964 37.2402 6.33498 36.6574 6.46501C36.0745 6.59503 35.8952 7.7705 36.2569 9.0905C36.6186 10.4105 37.3842 11.3751 37.9671 11.2451Z" fill="#E31E24"/>
<path fill-rule="evenodd" clip-rule="evenodd" d="M38.3673 8.61978C38.3729 8.64043 38.3784 8.66098 38.3838 8.68154C38.3891 8.70209 38.3945 8.72264 38.3996 8.7431C38.4047 8.76356 38.4097 8.78401 38.4146 8.80437L38.4287 8.86536L38.4421 8.92608C38.4465 8.94625 38.4507 8.96633 38.4548 8.98641C38.4589 9.00649 38.4628 9.02647 38.4667 9.04646C38.4705 9.06644 38.4741 9.08633 38.4777 9.10622H38.4778L38.4881 9.16551C38.4914 9.18521 38.4946 9.20491 38.4976 9.22442C38.5007 9.24403 38.5036 9.26354 38.5065 9.28296C38.5092 9.30238 38.5119 9.3217 38.5145 9.34102C38.517 9.36034 38.5195 9.37947 38.5218 9.3986L38.5284 9.45571C38.5304 9.47475 38.5322 9.4936 38.5341 9.51235L38.5391 9.56851C38.5407 9.58717 38.5421 9.60564 38.5435 9.62411L38.547 9.67904C38.5481 9.69732 38.549 9.71551 38.5499 9.7335C38.5507 9.75159 38.5514 9.7695 38.5519 9.7873C38.5526 9.8052 38.5529 9.82291 38.5534 9.84052C38.5537 9.85814 38.5538 9.87567 38.5539 9.8931C38.554 9.91052 38.554 9.92785 38.5539 9.94499C38.5537 9.96223 38.5535 9.97928 38.553 9.99624C38.5527 10.0132 38.5522 10.03 38.5516 10.0467C38.5509 10.0634 38.5501 10.0801 38.5494 10.0964V10.0965C38.5485 10.113 38.5475 10.1293 38.5464 10.1455C38.5452 10.1617 38.5441 10.1778 38.5428 10.1937L38.5427 10.1938C38.5414 10.2097 38.54 10.2255 38.5384 10.2413C38.5368 10.2569 38.5351 10.2725 38.5334 10.2879V10.2879C38.5316 10.3033 38.5296 10.3185 38.5276 10.3337C38.5256 10.3488 38.5234 10.3638 38.5211 10.3787C38.5188 10.3936 38.5165 10.4082 38.514 10.4228H38.5139C38.5115 10.4373 38.5089 10.4517 38.5061 10.466C38.5035 10.4802 38.5006 10.4943 38.4976 10.5083C38.4947 10.5223 38.4916 10.5361 38.4885 10.5496V10.5497C38.4852 10.5633 38.4819 10.5768 38.4786 10.5901C38.4751 10.6034 38.4717 10.6166 38.468 10.6295V10.6296C38.4644 10.6426 38.4606 10.6553 38.4568 10.668C38.4529 10.6806 38.449 10.6931 38.4449 10.7054C38.4408 10.7177 38.4366 10.7299 38.4324 10.7418C38.428 10.7537 38.4236 10.7656 38.4191 10.7771H38.419C38.4146 10.7888 38.4099 10.8002 38.4053 10.8114C38.4005 10.8226 38.3957 10.8337 38.3907 10.8446C38.3857 10.8555 38.3807 10.8661 38.3755 10.8766C38.3704 10.8871 38.365 10.8974 38.3596 10.9075C38.3543 10.9176 38.3487 10.9275 38.3431 10.9372C38.3375 10.947 38.3318 10.9565 38.326 10.9658C38.3202 10.9751 38.3143 10.9842 38.3083 10.9932C38.3021 11.0021 38.296 11.0108 38.2898 11.0193C38.2836 11.0277 38.2773 11.0361 38.2708 11.0441V11.0442C38.2643 11.0523 38.2577 11.0601 38.251 11.0678C38.2444 11.0755 38.2376 11.083 38.2307 11.0902C38.2239 11.0974 38.2169 11.1044 38.2098 11.1112C38.2027 11.118 38.1955 11.1245 38.1883 11.1309C38.1809 11.1372 38.1736 11.1434 38.166 11.1493C38.1586 11.1551 38.1509 11.1608 38.1433 11.1663C38.1356 11.1717 38.1278 11.1769 38.1199 11.1818V11.1819C38.1119 11.1869 38.1039 11.1916 38.0958 11.1962C38.0877 11.2006 38.0795 11.2049 38.0712 11.2088C38.0628 11.2129 38.0545 11.2167 38.0459 11.2202C38.0375 11.2237 38.0288 11.227 38.0202 11.23C38.0115 11.2331 38.0026 11.2358 37.9937 11.2384V11.2385C37.9848 11.2409 37.9758 11.2432 37.9667 11.2453C37.96 11.2468 37.9533 11.248 37.9466 11.2492C37.8705 11.2621 37.7795 11.2554 37.6776 11.2272C37.233 11.0859 36.7433 10.4519 36.4185 9.58991C37.3731 9.63699 37.2584 8.5226 38.3673 8.61978Z" fill="#8E0603"/>
<path fill-rule="evenodd" clip-rule="evenodd" d="M38.5147 9.34082C38.6476 10.3435 38.4405 11.1395 37.9669 11.2451C37.6978 11.3052 37.3895 11.1316 37.1001 10.7973C37.6838 11.1108 37.8141 9.79819 38.5147 9.34082Z" fill="#8E0603"/>
<path fill-rule="evenodd" clip-rule="evenodd" d="M27.708 12.2185C31.0295 12.2185 34.096 13.1513 36.5666 14.7264C19.5958 12.266 20.502 27.2061 24.1301 31.2955C25.8095 33.1884 22.4393 35.2011 18.8763 34.9719C15.2505 32.671 12.9014 28.9892 12.9014 24.8406C12.9014 17.8708 19.5319 12.2185 27.708 12.2185Z" fill="#FEFEFE"/>
<path fill-rule="evenodd" clip-rule="evenodd" d="M41.4907 29.3473C40.2471 32.4384 37.9409 34.7419 34.2356 36.2085C31.9344 37.1193 29.3059 37.5438 26.7751 37.5205C26.2369 37.5155 25.6989 37.4903 25.1634 37.4443L25.1587 37.4438L25.154 37.4433C20.8847 36.9166 16.6346 35.5281 14.5349 32.0976L14.1135 31.4091C12.6588 30.0879 11.6874 27.9307 11.3209 26.3362L11.2003 25.8118C10.5591 24.387 10.5776 20.7542 10.9383 19.0191L11.1005 18.2398L11.1426 18.3609C11.2769 17.1993 11.4779 16.0496 11.8292 14.918C12.3093 13.3718 13.0484 11.9505 13.9373 10.5458L14.3059 9.9633C14.4711 8.99779 14.7154 8.11781 15.049 7.37583L15.0581 7.35565L15.0723 7.33785C15.6272 6.64095 16.3745 6.20062 17.3521 6.05855C18.5154 5.88949 19.7043 6.1689 20.8248 6.40758L21.1217 6.47075L20.956 6.69002C19.865 8.13354 18.8904 9.64288 18.1246 11.2328C17.4558 12.622 16.9626 14.0468 16.6426 15.5233C15.9827 18.5685 15.931 20.8112 16.2064 23.1368C16.6417 25.0165 18.2766 27.2617 20.493 29.5769C25.214 32.0916 30.7266 33.8624 35.3554 32.9774C37.697 32.5296 39.5837 32.1866 41.4907 29.3473Z" fill="#FEFEFE"/>
<path fill-rule="evenodd" clip-rule="evenodd" d="M11.5361 26.3008C11.9778 28.222 12.9907 30.1994 15.0564 31.7774C21.7127 36.1662 30.8814 35.0296 35.5414 33.2837C29.0742 34.5615 19.7739 32.4456 11.5361 26.3008Z" fill="#EF7F1A"/>
<path fill-rule="evenodd" clip-rule="evenodd" d="M11.1559 19.0525C10.6575 21.4485 10.8387 23.902 11.5868 25.9079C13.3245 27.6143 16.8106 29.5865 20.5501 31.068C24.0017 32.4353 27.833 33.5738 32.2232 33.4336C26.5407 32.9065 22.7851 31.07 20.422 29.7602C15.5013 27.0328 12.7424 23.6148 11.1559 19.0525Z" fill="#FFDB00"/>
<path fill-rule="evenodd" clip-rule="evenodd" d="M14.131 10.635C12.2791 13.5614 11.6461 15.6416 11.3232 18.7274C12.1899 22.344 15.7412 26.8825 19.5815 28.9201C14.782 23.9066 13.8252 17.7654 14.131 10.635Z" fill="#009846"/>
<path fill-rule="evenodd" clip-rule="evenodd" d="M20.7718 6.58952C19.0773 6.22857 16.7046 5.62108 15.2537 7.44345C13.5479 11.2368 14.1976 18.9208 15.9332 22.8725C15.7363 16.7686 16.399 12.375 20.7718 6.58952Z" fill="#00A0E3"/>
<path fill-rule="evenodd" clip-rule="evenodd" d="M14.7305 32.0113C16.6841 35.2032 20.6043 36.6932 25.1866 37.2585C28.5243 37.5458 32.2732 36.9074 35.2316 35.5594C37.2824 34.6248 39.6333 32.7303 40.5755 30.9326C39.2498 32.1423 37.1842 32.9971 35.159 33.6423C32.1991 34.5854 28.8718 35.1136 26.0675 35.0698C22.1702 35.0088 18.3853 34.2249 14.7305 32.0113Z" fill="#E31E24"/>
<path fill-rule="evenodd" clip-rule="evenodd" d="M14.7305 32.0115C16.6841 35.2034 20.6043 36.6933 25.1866 37.2587C25.2945 37.268 25.4025 37.2764 25.5107 37.284C22.7759 36.8363 20.2853 35.5666 18.2532 33.711C17.0662 33.2737 15.8919 32.7148 14.7305 32.0115Z" fill="#EF7F1A"/>
<path fill-rule="evenodd" clip-rule="evenodd" d="M20.7733 6.58952C19.079 6.22857 16.7062 5.62108 15.2554 7.44345C14.4758 9.17699 14.1884 11.7232 14.2717 14.3544C15.5844 11.2449 17.7644 8.66762 20.4699 6.99688C20.569 6.86182 20.6701 6.726 20.7733 6.58952Z" fill="#FEFEFE"/>
<path fill-rule="evenodd" clip-rule="evenodd" d="M11.1559 19.0525C10.6575 21.4485 10.8387 23.902 11.5868 25.9079C12.255 26.564 13.1572 27.2484 14.2276 27.9253C13.5898 26.3858 13.1645 24.718 12.9914 22.9671C12.2482 21.7625 11.6461 20.4622 11.1559 19.0525Z" fill="#FEFEFE"/>
<path fill-rule="evenodd" clip-rule="evenodd" d="M14.131 10.635C12.2791 13.5614 11.6461 15.6416 11.3232 18.7274C11.6059 19.9071 12.1748 21.1849 12.9456 22.442C12.9169 22.0294 12.9025 21.6123 12.9025 21.1916C12.9025 21.1745 12.9029 21.1575 12.9031 21.1405C12.9028 21.0514 12.9039 20.9623 12.906 20.8732C12.9442 18.694 13.3725 16.6197 14.1171 14.7309C14.0597 13.4046 14.0708 12.039 14.131 10.635Z" fill="#FFED00"/>
<path fill-rule="evenodd" clip-rule="evenodd" d="M11.5361 26.3008C11.9778 28.222 12.9907 30.1994 15.0564 31.7774C15.9082 32.3389 16.7992 32.8085 17.7154 33.1968C16.31 31.7832 15.154 30.0755 14.327 28.1627C13.3917 27.5902 12.4599 26.97 11.5361 26.3008Z" fill="#FFED00"/>
<path fill-rule="evenodd" clip-rule="evenodd" d="M18.083 15.2517C20.3619 12.6228 25.0783 9.88753 28.7422 10.4958C32.3051 11.0874 33.7621 9.80664 36.0994 9.44531C36.4604 10.5297 37.1189 11.3292 37.719 11.4292L37.7173 11.4523C36.2583 11.6187 34.7831 12.2228 34.3209 12.908C34.139 13.0051 33.9634 13.1154 33.7979 13.2418C33.771 13.2624 33.7433 13.2819 33.716 13.3017C31.88 12.6059 29.8476 12.2186 27.7092 12.2186C27.5839 12.2186 27.459 12.22 27.3344 12.2227L27.3123 12.2233C27.1958 12.2259 27.0795 12.2296 26.9637 12.2345L26.9231 12.2364C26.8123 12.2413 26.7017 12.2473 26.5916 12.2543L26.5469 12.2573C26.4376 12.2645 26.3287 12.2727 26.2201 12.282L26.1755 12.2858C26.0656 12.2954 25.956 12.3061 25.8468 12.3178L25.8094 12.3218C25.6965 12.3342 25.5841 12.3475 25.4721 12.362L25.4466 12.3652C25.3297 12.3806 25.2132 12.397 25.0972 12.4146L25.0669 12.4194C24.9581 12.4361 24.8497 12.4537 24.7418 12.4725L24.6962 12.4806C24.5944 12.4986 24.4929 12.5173 24.3918 12.537L24.3305 12.5493C24.234 12.5685 24.138 12.5885 24.0424 12.6092L23.9766 12.6236C23.8828 12.6444 23.7893 12.666 23.6962 12.6883L23.6261 12.7052C23.534 12.7277 23.4422 12.7511 23.3507 12.775C23.3277 12.781 23.3047 12.787 23.2817 12.7931C23.1891 12.8179 23.0966 12.8435 23.0048 12.8698C22.9766 12.8778 22.9486 12.8859 22.9208 12.894C22.8313 12.9201 22.7424 12.9467 22.6539 12.9741C22.6254 12.983 22.597 12.9919 22.5687 13.0009C22.484 13.0277 22.3997 13.0548 22.3158 13.0829C22.2856 13.0929 22.2556 13.1032 22.2255 13.1135C22.1467 13.1403 22.0684 13.1675 21.9904 13.1954C21.9585 13.2068 21.9268 13.2183 21.8951 13.2298C21.8197 13.2573 21.7445 13.2854 21.6696 13.314C21.6358 13.3268 21.6021 13.3398 21.5684 13.3529C21.4961 13.381 21.4241 13.4098 21.3523 13.4389C21.3174 13.4531 21.2824 13.4673 21.2475 13.4817C21.1781 13.5105 21.109 13.5399 21.0402 13.5696C20.9923 13.5902 20.9446 13.6111 20.897 13.6321C20.841 13.6569 20.7851 13.6821 20.7294 13.7075C20.6775 13.7312 20.6259 13.7551 20.5743 13.7794C20.5219 13.804 20.4697 13.8288 20.4176 13.854C20.3659 13.879 20.3145 13.9043 20.2632 13.9298C20.2107 13.9559 20.1583 13.9823 20.1062 14.0089C20.0567 14.0343 20.0072 14.0598 19.958 14.0857C19.902 14.1151 19.8462 14.1446 19.7908 14.1746C19.7479 14.1977 19.7054 14.2211 19.6628 14.2447C19.6088 14.2746 19.555 14.3047 19.5015 14.3352C19.4485 14.3654 19.3958 14.3959 19.3433 14.4266C19.3019 14.4508 19.2608 14.4751 19.2197 14.4996C19.1594 14.5357 19.0994 14.5722 19.0397 14.6091C19.0065 14.6295 18.9735 14.65 18.9405 14.6707C18.8781 14.7098 18.816 14.7495 18.7543 14.7896C18.7244 14.8089 18.6946 14.8284 18.6649 14.848C18.6022 14.8892 18.54 14.9309 18.4782 14.9731C18.4503 14.992 18.4227 15.011 18.3949 15.0303C18.3331 15.0729 18.2717 15.1159 18.2108 15.1595C18.1827 15.1794 18.1548 15.1997 18.1268 15.2199L18.083 15.2517Z" fill="#8E0603"/>
</svg>
